<?xml version="1.0" encoding="UTF-8" standalone="no"?>
<svg
   xmlns:dc="http://purl.org/dc/elements/1.1/"
   xmlns:cc="http://creativecommons.org/ns#"
   xmlns:rdf="http://www.w3.org/1999/02/22-rdf-syntax-ns#"
   xmlns:svg="http://www.w3.org/2000/svg"
   xmlns="http://www.w3.org/2000/svg"
   xmlns:sodipodi="http://sodipodi.sourceforge.net/DTD/sodipodi-0.dtd"
   xmlns:inkscape="http://www.inkscape.org/namespaces/inkscape"
   height="16"
   viewBox="0 0 16 16"
   width="16"
   version="1.1"
   id="svg33"
   sodipodi:docname="Folder.svg"
   inkscape:version="1.0.2-2 (e86c870879, 2021-01-15)">
  <metadata
     id="metadata39">
    <rdf:RDF>
      <cc:Work
         rdf:about="">
        <dc:format>image/svg+xml</dc:format>
        <dc:type
           rdf:resource="http://purl.org/dc/dcmitype/StillImage" />
        <dc:title></dc:title>
      </cc:Work>
    </rdf:RDF>
  </metadata>
  <defs
     id="defs37" />
  <sodipodi:namedview
     pagecolor="#ffffff"
     bordercolor="#666666"
     borderopacity="1"
     objecttolerance="10"
     gridtolerance="10"
     guidetolerance="10"
     inkscape:pageopacity="0"
     inkscape:pageshadow="2"
     inkscape:window-width="1858"
     inkscape:window-height="1058"
     id="namedview35"
     showgrid="false"
     inkscape:zoom="55.625"
     inkscape:cx="4.5393258"
     inkscape:cy="7.5057494"
     inkscape:window-x="1912"
     inkscape:window-y="-8"
     inkscape:window-maximized="1"
     inkscape:current-layer="svg33" />
  <a
     id="a1167" />
  <path
     id="path31"
     style="mix-blend-mode:exclusion;fill:#b2ffb2;fill-opacity:1;stroke:none"
     d="M 2 2 A 1 1 0 0 0 1 3 L 1 5 L 1 11 L 1 13 A 1 1 0 0 0 2 14 L 14 14 A 1 1 0 0 0 15 13 L 15 6 A 1 1 0 0 0 14 5 L 10 5 A 1 1 0 0 1 9 4 L 9 3 A 1 1 0 0 0 8 2 L 2 2 z M 7.3339844 5.2792969 L 8.4863281 5.2792969 L 8.4863281 8.7363281 L 11.943359 8.7363281 L 11.943359 9.8886719 L 8.4863281 9.8886719 L 8.4863281 13.345703 L 7.3339844 13.345703 L 7.3339844 9.8886719 L 3.8769531 9.8886719 L 3.8769531 8.7363281 L 7.3339844 8.7363281 L 7.3339844 5.2792969 z " />
</svg>
