<?xml version="1.0" encoding="UTF-8" standalone="no"?>
<svg
   xmlns:dc="http://purl.org/dc/elements/1.1/"
   xmlns:cc="http://creativecommons.org/ns#"
   xmlns:rdf="http://www.w3.org/1999/02/22-rdf-syntax-ns#"
   xmlns:svg="http://www.w3.org/2000/svg"
   xmlns="http://www.w3.org/2000/svg"
   xmlns:sodipodi="http://sodipodi.sourceforge.net/DTD/sodipodi-0.dtd"
   xmlns:inkscape="http://www.inkscape.org/namespaces/inkscape"
   height="16"
   viewBox="0 0 16 16"
   width="16"
   version="1.1"
   id="svg3170"
   sodipodi:docname="icon_save_button.svg"
   inkscape:version="1.0.2-2 (e86c870879, 2021-01-15)">
  <metadata
     id="metadata3176">
    <rdf:RDF>
      <cc:Work
         rdf:about="">
        <dc:format>image/svg+xml</dc:format>
        <dc:type
           rdf:resource="http://purl.org/dc/dcmitype/StillImage" />
        <dc:title></dc:title>
      </cc:Work>
    </rdf:RDF>
  </metadata>
  <defs
     id="defs3174" />
  <sodipodi:namedview
     pagecolor="#ffffff"
     bordercolor="#666666"
     borderopacity="1"
     objecttolerance="10"
     gridtolerance="10"
     guidetolerance="10"
     inkscape:pageopacity="0"
     inkscape:pageshadow="2"
     inkscape:window-width="1858"
     inkscape:window-height="1058"
     id="namedview3172"
     showgrid="false"
     inkscape:zoom="27.8125"
     inkscape:cx="2.400616"
     inkscape:cy="8.0204443"
     inkscape:window-x="1912"
     inkscape:window-y="-8"
     inkscape:window-maximized="1"
     inkscape:current-layer="g3168" />
  <g
     transform="translate(0 -1036.4)"
     id="g3168">
    <path
       d="m 3,1044.525 c -1.1046,0 -2,0.6922 -2,1.5462 v 4.6385 c 0,0.8539 0.89543,1.5461 2,1.5461 h 5 1 1 2 1 c 1.1046,0 2,-0.6922 2,-1.5461 v -4.6385 c 0,-0.854 -0.89543,-1.5462 -2,-1.5462 H 12 10 9 8 Z m 8,-3.876 c 0.911704,-0.016 1.374145,0.8416 0.7168,1.3302 l -3,2.3193 c -0.3905342,0.3018 -1.0235658,0.3018 -1.4141,0 l -3,-2.3193 c -0.6431187,-0.4838 -0.2001529,-1.327 0.69727,-1.3272 0.2700022,0 0.5285274,0.084 0.7168,0.234 l 2.293,1.7727 2.293,-1.7727 c 0.182875,-0.147 0.433497,-0.2322 0.69727,-0.237 z"
       fill="#a5efac"
       id="path3164"
       sodipodi:nodetypes="ssssccccssssccccsccccccccccc"
       style="stroke-width:0.879251" />
    <path
       d="m 4,1046.8443 h 4 v 3.0923 H 4 Z"
       fill="none"
       id="path3166"
       style="stroke-width:0.879251" />
    <path
       d="m 3.0230956,1039.9558 a 1,1.2276362 0 0 1 0.291,-0.8512 1,1.2276362 0 0 1 1.4141,0 l 2.293,2.815 v -5.6299 c 0,-0.678 0.4477,-1.2276 1,-1.2276 0.5522997,0 0.9999997,0.5496 0.9999997,1.2276 v 5.6299 l 2.2929997,-2.815 a 1,1.2276362 0 0 1 1.4141,0 1,1.2276362 0 0 1 0,1.736 l -3.9999997,4.9105 a 1.0001,1.2277591 0 0 1 -1.4140997,0 l -4,-4.9105 a 1,1.2276362 0 0 1 -0.291,-0.8848 z"
       fill="#e0e0e0"
       fill-opacity="0.99608"
       id="path3178"
       style="stroke-width:1.10799" />
    <path
       d="m 3.0230956,1039.9558 a 1,1.2276362 0 0 1 0.291,-0.8512 1,1.2276362 0 0 1 1.4141,0 l 2.293,2.815 v -5.6299 c 0,-0.678 0.4477,-1.2276 1,-1.2276 0.5522997,0 0.9999997,0.5496 0.9999997,1.2276 v 5.6299 l 2.2929997,-2.815 a 1,1.2276362 0 0 1 1.4141,0 1,1.2276362 0 0 1 0,1.736 l -3.9999997,4.9105 a 1.0001,1.2277591 0 0 1 -1.4140997,0 l -4,-4.9105 a 1,1.2276362 0 0 1 -0.291,-0.8848 z"
       fill="#e0e0e0"
       fill-opacity="0.99608"
       id="path3189"
       style="stroke-width:1.10799;fill:#a5efac;fill-opacity:1" />
  </g>
</svg>
