<?xml version="1.0" encoding="UTF-8" standalone="no"?>
<svg
   xmlns:dc="http://purl.org/dc/elements/1.1/"
   xmlns:cc="http://creativecommons.org/ns#"
   xmlns:rdf="http://www.w3.org/1999/02/22-rdf-syntax-ns#"
   xmlns:svg="http://www.w3.org/2000/svg"
   xmlns="http://www.w3.org/2000/svg"
   xmlns:sodipodi="http://sodipodi.sourceforge.net/DTD/sodipodi-0.dtd"
   xmlns:inkscape="http://www.inkscape.org/namespaces/inkscape"
   height="16"
   viewBox="0 0 26 16"
   width="26"
   version="1.1"
   id="svg3772"
   sodipodi:docname="icon_diff_off_button.svg"
   inkscape:version="1.0.2-2 (e86c870879, 2021-01-15)">
  <metadata
     id="metadata3778">
    <rdf:RDF>
      <cc:Work
         rdf:about="">
        <dc:format>image/svg+xml</dc:format>
        <dc:type
           rdf:resource="http://purl.org/dc/dcmitype/StillImage" />
        <dc:title></dc:title>
      </cc:Work>
    </rdf:RDF>
  </metadata>
  <defs
     id="defs3776" />
  <sodipodi:namedview
     pagecolor="#ffffff"
     bordercolor="#666666"
     borderopacity="1"
     objecttolerance="10"
     gridtolerance="10"
     guidetolerance="10"
     inkscape:pageopacity="0"
     inkscape:pageshadow="2"
     inkscape:window-width="1858"
     inkscape:window-height="1058"
     id="namedview3774"
     showgrid="false"
     inkscape:zoom="39.332815"
     inkscape:cx="9.991522"
     inkscape:cy="9.0696384"
     inkscape:window-x="1912"
     inkscape:window-y="-8"
     inkscape:window-maximized="1"
     inkscape:current-layer="g4481" />
  <g
     transform="translate(-0.05084813,-1036.4763)"
     id="g3770">
    <path
       d="m 5.601716,1042.9085 h 4 v 4 h -4 z"
       fill="none"
       id="path3768" />
    <g
       id="g4481">
      <path
         id="path3766"
         style="stroke-width:1.0424;fill:#a66c76;fill-opacity:1"
         d="M 4.9707031 0.94921875 C 3.7704442 0.94921875 2.796875 1.8446188 2.796875 2.9492188 L 2.796875 7.9492188 L 2.796875 8.9492188 L 2.796875 9.9492188 L 2.796875 11.949219 L 2.796875 12.949219 C 2.796875 14.053819 3.7704442 14.949219 4.9707031 14.949219 L 21.490234 14.949219 C 22.690493 14.949219 23.662109 14.053819 23.662109 12.949219 L 23.662109 11.949219 L 23.662109 9.9492188 L 23.662109 8.9492188 L 23.662109 7.9492188 L 23.662109 2.9492188 C 23.662109 1.8446187 22.690493 0.94921875 21.490234 0.94921875 L 4.9707031 0.94921875 z M 9.4375 3.953125 C 9.9507717 4.0047764 10.413926 4.3883436 10.414062 4.9492188 C 10.414057 5.2192187 10.294264 5.4777156 10.083984 5.6660156 L 7.59375 7.9589844 L 10.083984 10.251953 C 10.290609 10.434853 10.411186 10.685519 10.417969 10.949219 C 10.441349 11.860919 9.2356808 12.323316 8.5488281 11.666016 L 5.2890625 8.6660156 C 4.8648608 8.2755156 4.8648608 7.6424531 5.2890625 7.2519531 L 8.5488281 4.2519531 C 8.803876 4.0107906 9.129537 3.9221342 9.4375 3.953125 z M 14.878906 4.0761719 C 15.39218 4.1278643 15.855351 4.5115156 15.855469 5.0722656 C 15.855469 5.3421656 15.737486 5.6007625 15.527344 5.7890625 L 13.035156 8.0820312 L 15.527344 10.375 C 15.734084 10.5579 15.852949 10.808566 15.859375 11.072266 C 15.882055 11.983966 14.677087 12.446364 13.990234 11.789062 L 10.730469 8.7890625 C 10.306255 8.3985625 10.306255 7.7655 10.730469 7.375 L 13.990234 4.375 C 14.245282 4.1338375 14.570942 4.0451564 14.878906 4.0761719 z M 20.505859 4.1269531 C 21.019133 4.1786494 21.482304 4.5622344 21.482422 5.1230469 C 21.482422 5.3928469 21.364439 5.6515437 21.154297 5.8398438 L 18.662109 8.1328125 L 21.154297 10.425781 C 21.361037 10.608681 21.479902 10.859347 21.486328 11.123047 C 21.509008 12.034747 20.304041 12.497144 19.617188 11.839844 L 16.357422 8.8398438 C 15.933208 8.4493438 15.933208 7.8162812 16.357422 7.4257812 L 19.617188 4.4257812 C 19.872235 4.1846562 20.197895 4.0959354 20.505859 4.1269531 z "
         transform="translate(0.05084813,1036.4763)" />
    </g>
  </g>
</svg>
