<?xml version="1.0" encoding="UTF-8" standalone="no"?>
<svg
   xmlns:dc="http://purl.org/dc/elements/1.1/"
   xmlns:cc="http://creativecommons.org/ns#"
   xmlns:rdf="http://www.w3.org/1999/02/22-rdf-syntax-ns#"
   xmlns:svg="http://www.w3.org/2000/svg"
   xmlns="http://www.w3.org/2000/svg"
   xmlns:sodipodi="http://sodipodi.sourceforge.net/DTD/sodipodi-0.dtd"
   xmlns:inkscape="http://www.inkscape.org/namespaces/inkscape"
   version="1.1"
   viewBox="0 0 16 16"
   enable-background="new 0 0 512 512"
   id="svg12"
   sodipodi:docname="hexagon.svg"
   width="16"
   height="16"
   inkscape:version="0.92.5 (2060ec1f9f, 2020-04-08)">
  <title
     id="title828">Hexagons</title>
  <metadata
     id="metadata18">
    <rdf:RDF>
      <cc:Work
         rdf:about="">
        <dc:format>image/svg+xml</dc:format>
        <dc:type
           rdf:resource="http://purl.org/dc/dcmitype/StillImage" />
        <dc:title>Hexagons</dc:title>
        <cc:license
           rdf:resource="http://creativecommons.org/publicdomain/zero/1.0/" />
        <dc:contributor>
          <cc:Agent>
            <dc:title>https://www.svgrepo.com/svg/42731/hexagon
and your servitor</dc:title>
          </cc:Agent>
        </dc:contributor>
        <dc:creator>
          <cc:Agent>
            <dc:title />
          </cc:Agent>
        </dc:creator>
      </cc:Work>
      <cc:License
         rdf:about="http://creativecommons.org/publicdomain/zero/1.0/">
        <cc:permits
           rdf:resource="http://creativecommons.org/ns#Reproduction" />
        <cc:permits
           rdf:resource="http://creativecommons.org/ns#Distribution" />
        <cc:permits
           rdf:resource="http://creativecommons.org/ns#DerivativeWorks" />
      </cc:License>
    </rdf:RDF>
  </metadata>
  <defs
     id="defs16" />
  <sodipodi:namedview
     pagecolor="#ffffff"
     bordercolor="#666666"
     borderopacity="1"
     objecttolerance="10"
     gridtolerance="10"
     guidetolerance="10"
     inkscape:pageopacity="0"
     inkscape:pageshadow="2"
     inkscape:window-width="1920"
     inkscape:window-height="1117"
     id="namedview14"
     showgrid="false"
     inkscape:zoom="45.254834"
     inkscape:cx="9.540662"
     inkscape:cy="7.8616848"
     inkscape:window-x="0"
     inkscape:window-y="0"
     inkscape:window-maximized="1"
     inkscape:current-layer="svg12" />
  <g
     id="g10"
     transform="matrix(0.02652552,0,0,0.02652552,1.2442926,1.2029614)"
     style="stroke:#a5b7f3;stroke-opacity:1;stroke-width:41.46949805;stroke-miterlimit:4;stroke-dasharray:none">
    <g
       id="g8"
       style="stroke:#a5b7f3;stroke-opacity:1;stroke-width:41.46949805;stroke-miterlimit:4;stroke-dasharray:none">
      <path
         d="M 365.5,191.5 V 84.8 c 0,-7.2 -3.8,-13.8 -9.9,-17.5 l -89,-53.4 c -6.5,-3.9 -14.5,-3.9 -21,0 l -89.1,53.4 c -6.2,3.7 -9.9,10.3 -9.9,17.5 v 106.7 c 0,7.2 3.8,13.8 9.9,17.5 l 89.1,53.4 c 9.4,5.4 17.2,2.5 21,0 l 89,-53.4 c 6.1,-3.7 9.9,-10.3 9.9,-17.5 z"
         id="path2"
         inkscape:connector-curvature="0"
         style="stroke:#a5b7f3;stroke-opacity:1;stroke-width:41.46949805;stroke-miterlimit:4;stroke-dasharray:none" />
      <path
         d="m 220,303 -89,-53.4 c -6.5,-3.9 -14.5,-3.9 -21,0 L 20.9,303 c -6.2,3.7 -9.9,10.3 -9.9,17.5 v 106.7 c 0,7.2 3.8,13.8 9.9,17.5 l 89.1,53.4 c 9.4,5.4 17.2,2.5 21,0 l 89,-53.4 c 6.2,-3.7 9.9,-10.3 9.9,-17.5 V 320.5 c 0,-7.2 -3.7,-13.8 -9.9,-17.5 z"
         id="path4"
         inkscape:connector-curvature="0"
         style="stroke:#a5b7f3;stroke-opacity:1;stroke-width:41.46949805;stroke-miterlimit:4;stroke-dasharray:none" />
      <path
         d="m 491.1,302.9 -89,-53.4 c -6.5,-3.9 -14.5,-3.9 -21,0 L 292,302.9 c -6.2,3.7 -9.9,10.3 -9.9,17.5 v 106.7 c 0,7.2 3.8,13.8 9.9,17.5 l 89,53.4 c 9.4,5.4 17.2,2.5 21,0 l 89,-53.4 c 6.2,-3.7 9.9,-10.3 9.9,-17.5 V 320.4 c 0.1,-7.2 -3.7,-13.8 -9.8,-17.5 z"
         id="path6"
         inkscape:connector-curvature="0"
         style="stroke:#a5b7f3;stroke-opacity:1;stroke-width:41.46949805;stroke-miterlimit:4;stroke-dasharray:none" />
    </g>
  </g>
</svg>
